<svg width="307" height="307" viewBox="0 0 307 307" fill="none" xmlns="http://www.w3.org/2000/svg">
<rect x="0.159424" y="153.345" width="216.637" height="216.637" rx="36.1062" transform="rotate(-45 0.159424 153.345)" fill="#05A3FF"/>
<mask id="path-2-outside-1_88_5" maskUnits="userSpaceOnUse" x="54.4851" y="123.809" width="197" height="59" fill="black">
<rect fill="white" x="54.4851" y="123.809" width="197" height="59"/>
<path d="M102.098 125.809C103.805 125.809 105.217 126.367 106.334 127.483C107.45 128.6 108.008 130.045 108.008 131.818V173.49C108.008 175.197 107.45 176.642 106.334 177.825C105.217 178.941 103.805 179.499 102.098 179.499C100.39 179.499 98.9779 178.941 97.8614 177.825C96.7449 176.642 96.1867 175.197 96.1867 173.49V168.663L98.354 169.549C98.354 170.403 97.8943 171.454 96.9748 172.702C96.0553 173.884 94.8075 175.066 93.2312 176.248C91.655 177.43 89.7832 178.448 87.6159 179.302C85.5142 180.09 83.2155 180.484 80.7198 180.484C76.1881 180.484 72.0833 179.335 68.4054 177.036C64.7275 174.672 61.8049 171.454 59.6376 167.382C57.5359 163.244 56.4851 158.516 56.4851 153.196C56.4851 147.81 57.5359 143.082 59.6376 139.01C61.8049 134.872 64.6947 131.654 68.3069 129.355C71.9191 126.991 75.9254 125.809 80.3258 125.809C83.1499 125.809 85.7441 126.235 88.1085 127.089C90.4728 127.943 92.5088 129.027 94.2164 130.34C95.9897 131.654 97.336 133 98.2555 134.379C99.2407 135.693 99.7332 136.809 99.7332 137.729L96.1867 139.01V131.818C96.1867 130.11 96.7449 128.698 97.8614 127.582C98.9779 126.4 100.39 125.809 102.098 125.809ZM82.1975 169.648C85.0873 169.648 87.6159 168.925 89.7832 167.48C91.9505 166.036 93.6253 164.065 94.8075 161.57C96.0553 159.074 96.6793 156.283 96.6793 153.196C96.6793 150.043 96.0553 147.219 94.8075 144.723C93.6253 142.228 91.9505 140.257 89.7832 138.813C87.6159 137.368 85.0873 136.645 82.1975 136.645C79.3734 136.645 76.8777 137.368 74.7104 138.813C72.5431 140.257 70.8355 142.228 69.5876 144.723C68.4054 147.219 67.8143 150.043 67.8143 153.196C67.8143 156.283 68.4054 159.074 69.5876 161.57C70.8355 164.065 72.5431 166.036 74.7104 167.48C76.8777 168.925 79.3734 169.648 82.1975 169.648Z"/>
<path d="M144.255 125.809C147.999 125.809 151.25 126.203 154.008 126.991C156.832 127.779 159 128.895 160.51 130.34C162.086 131.719 162.874 133.394 162.874 135.365C162.874 136.678 162.48 137.926 161.692 139.108C160.904 140.225 159.755 140.783 158.244 140.783C157.193 140.783 156.307 140.652 155.584 140.389C154.928 140.06 154.337 139.666 153.811 139.207C153.286 138.747 152.662 138.32 151.939 137.926C151.283 137.532 150.265 137.236 148.885 137.039C147.572 136.777 146.587 136.645 145.93 136.645C142.58 136.645 139.723 137.368 137.359 138.813C135.06 140.257 133.287 142.228 132.039 144.723C130.791 147.154 130.167 149.978 130.167 153.196C130.167 156.348 130.791 159.172 132.039 161.668C133.353 164.098 135.126 166.036 137.359 167.48C139.658 168.925 142.285 169.648 145.24 169.648C146.882 169.648 148.294 169.549 149.476 169.352C150.659 169.155 151.644 168.86 152.432 168.466C153.351 167.94 154.172 167.382 154.895 166.791C155.617 166.2 156.701 165.904 158.146 165.904C159.853 165.904 161.167 166.462 162.086 167.579C163.006 168.63 163.466 169.943 163.466 171.52C163.466 173.162 162.546 174.672 160.707 176.051C158.868 177.365 156.438 178.448 153.417 179.302C150.462 180.09 147.243 180.484 143.763 180.484C138.574 180.484 134.075 179.302 130.266 176.938C126.457 174.508 123.501 171.224 121.4 167.086C119.364 162.949 118.346 158.319 118.346 153.196C118.346 147.81 119.429 143.082 121.597 139.01C123.83 134.872 126.884 131.654 130.759 129.355C134.699 126.991 139.198 125.809 144.255 125.809Z"/>
<path d="M199.673 125.809C204.927 125.809 208.802 127.089 211.298 129.651C213.793 132.146 215.435 135.397 216.223 139.404L214.549 138.517L215.337 136.941C216.125 135.43 217.34 133.821 218.982 132.114C220.624 130.34 222.594 128.863 224.893 127.68C227.257 126.433 229.884 125.809 232.774 125.809C237.503 125.809 241.082 126.827 243.512 128.863C246.008 130.899 247.715 133.624 248.635 137.039C249.554 140.389 250.014 144.132 250.014 148.27V173.49C250.014 175.197 249.456 176.642 248.339 177.825C247.223 178.941 245.811 179.499 244.103 179.499C242.396 179.499 240.984 178.941 239.867 177.825C238.751 176.642 238.192 175.197 238.192 173.49V148.27C238.192 146.103 237.93 144.165 237.404 142.458C236.879 140.684 235.926 139.272 234.547 138.221C233.168 137.171 231.198 136.645 228.636 136.645C226.141 136.645 224.006 137.171 222.233 138.221C220.46 139.272 219.113 140.684 218.194 142.458C217.34 144.165 216.913 146.103 216.913 148.27V173.49C216.913 175.197 216.355 176.642 215.238 177.825C214.122 178.941 212.71 179.499 211.002 179.499C209.295 179.499 207.883 178.941 206.766 177.825C205.65 176.642 205.091 175.197 205.091 173.49V148.27C205.091 146.103 204.829 144.165 204.303 142.458C203.778 140.684 202.825 139.272 201.446 138.221C200.067 137.171 198.097 136.645 195.535 136.645C193.04 136.645 190.905 137.171 189.132 138.221C187.359 139.272 186.012 140.684 185.093 142.458C184.239 144.165 183.812 146.103 183.812 148.27V173.49C183.812 175.197 183.254 176.642 182.137 177.825C181.021 178.941 179.609 179.499 177.901 179.499C176.194 179.499 174.781 178.941 173.665 177.825C172.548 176.642 171.99 175.197 171.99 173.49V132.803C171.99 131.096 172.548 129.684 173.665 128.567C174.781 127.385 176.194 126.794 177.901 126.794C179.609 126.794 181.021 127.385 182.137 128.567C183.254 129.684 183.812 131.096 183.812 132.803V137.039L182.334 136.744C182.925 135.627 183.746 134.445 184.797 133.197C185.848 131.884 187.129 130.669 188.639 129.552C190.15 128.436 191.825 127.549 193.664 126.892C195.502 126.17 197.506 125.809 199.673 125.809Z"/>
</mask>
<path d="M102.098 125.809C103.805 125.809 105.217 126.367 106.334 127.483C107.45 128.6 108.008 130.045 108.008 131.818V173.49C108.008 175.197 107.45 176.642 106.334 177.825C105.217 178.941 103.805 179.499 102.098 179.499C100.39 179.499 98.9779 178.941 97.8614 177.825C96.7449 176.642 96.1867 175.197 96.1867 173.49V168.663L98.354 169.549C98.354 170.403 97.8943 171.454 96.9748 172.702C96.0553 173.884 94.8075 175.066 93.2312 176.248C91.655 177.43 89.7832 178.448 87.6159 179.302C85.5142 180.09 83.2155 180.484 80.7198 180.484C76.1881 180.484 72.0833 179.335 68.4054 177.036C64.7275 174.672 61.8049 171.454 59.6376 167.382C57.5359 163.244 56.4851 158.516 56.4851 153.196C56.4851 147.81 57.5359 143.082 59.6376 139.01C61.8049 134.872 64.6947 131.654 68.3069 129.355C71.9191 126.991 75.9254 125.809 80.3258 125.809C83.1499 125.809 85.7441 126.235 88.1085 127.089C90.4728 127.943 92.5088 129.027 94.2164 130.34C95.9897 131.654 97.336 133 98.2555 134.379C99.2407 135.693 99.7332 136.809 99.7332 137.729L96.1867 139.01V131.818C96.1867 130.11 96.7449 128.698 97.8614 127.582C98.9779 126.4 100.39 125.809 102.098 125.809ZM82.1975 169.648C85.0873 169.648 87.6159 168.925 89.7832 167.48C91.9505 166.036 93.6253 164.065 94.8075 161.57C96.0553 159.074 96.6793 156.283 96.6793 153.196C96.6793 150.043 96.0553 147.219 94.8075 144.723C93.6253 142.228 91.9505 140.257 89.7832 138.813C87.6159 137.368 85.0873 136.645 82.1975 136.645C79.3734 136.645 76.8777 137.368 74.7104 138.813C72.5431 140.257 70.8355 142.228 69.5876 144.723C68.4054 147.219 67.8143 150.043 67.8143 153.196C67.8143 156.283 68.4054 159.074 69.5876 161.57C70.8355 164.065 72.5431 166.036 74.7104 167.48C76.8777 168.925 79.3734 169.648 82.1975 169.648Z" fill="white"/>
<path d="M144.255 125.809C147.999 125.809 151.25 126.203 154.008 126.991C156.832 127.779 159 128.895 160.51 130.34C162.086 131.719 162.874 133.394 162.874 135.365C162.874 136.678 162.48 137.926 161.692 139.108C160.904 140.225 159.755 140.783 158.244 140.783C157.193 140.783 156.307 140.652 155.584 140.389C154.928 140.06 154.337 139.666 153.811 139.207C153.286 138.747 152.662 138.32 151.939 137.926C151.283 137.532 150.265 137.236 148.885 137.039C147.572 136.777 146.587 136.645 145.93 136.645C142.58 136.645 139.723 137.368 137.359 138.813C135.06 140.257 133.287 142.228 132.039 144.723C130.791 147.154 130.167 149.978 130.167 153.196C130.167 156.348 130.791 159.172 132.039 161.668C133.353 164.098 135.126 166.036 137.359 167.48C139.658 168.925 142.285 169.648 145.24 169.648C146.882 169.648 148.294 169.549 149.476 169.352C150.659 169.155 151.644 168.86 152.432 168.466C153.351 167.94 154.172 167.382 154.895 166.791C155.617 166.2 156.701 165.904 158.146 165.904C159.853 165.904 161.167 166.462 162.086 167.579C163.006 168.63 163.466 169.943 163.466 171.52C163.466 173.162 162.546 174.672 160.707 176.051C158.868 177.365 156.438 178.448 153.417 179.302C150.462 180.09 147.243 180.484 143.763 180.484C138.574 180.484 134.075 179.302 130.266 176.938C126.457 174.508 123.501 171.224 121.4 167.086C119.364 162.949 118.346 158.319 118.346 153.196C118.346 147.81 119.429 143.082 121.597 139.01C123.83 134.872 126.884 131.654 130.759 129.355C134.699 126.991 139.198 125.809 144.255 125.809Z" fill="white"/>
<path d="M199.673 125.809C204.927 125.809 208.802 127.089 211.298 129.651C213.793 132.146 215.435 135.397 216.223 139.404L214.549 138.517L215.337 136.941C216.125 135.43 217.34 133.821 218.982 132.114C220.624 130.34 222.594 128.863 224.893 127.68C227.257 126.433 229.884 125.809 232.774 125.809C237.503 125.809 241.082 126.827 243.512 128.863C246.008 130.899 247.715 133.624 248.635 137.039C249.554 140.389 250.014 144.132 250.014 148.27V173.49C250.014 175.197 249.456 176.642 248.339 177.825C247.223 178.941 245.811 179.499 244.103 179.499C242.396 179.499 240.984 178.941 239.867 177.825C238.751 176.642 238.192 175.197 238.192 173.49V148.27C238.192 146.103 237.93 144.165 237.404 142.458C236.879 140.684 235.926 139.272 234.547 138.221C233.168 137.171 231.198 136.645 228.636 136.645C226.141 136.645 224.006 137.171 222.233 138.221C220.46 139.272 219.113 140.684 218.194 142.458C217.34 144.165 216.913 146.103 216.913 148.27V173.49C216.913 175.197 216.355 176.642 215.238 177.825C214.122 178.941 212.71 179.499 211.002 179.499C209.295 179.499 207.883 178.941 206.766 177.825C205.65 176.642 205.091 175.197 205.091 173.49V148.27C205.091 146.103 204.829 144.165 204.303 142.458C203.778 140.684 202.825 139.272 201.446 138.221C200.067 137.171 198.097 136.645 195.535 136.645C193.04 136.645 190.905 137.171 189.132 138.221C187.359 139.272 186.012 140.684 185.093 142.458C184.239 144.165 183.812 146.103 183.812 148.27V173.49C183.812 175.197 183.254 176.642 182.137 177.825C181.021 178.941 179.609 179.499 177.901 179.499C176.194 179.499 174.781 178.941 173.665 177.825C172.548 176.642 171.99 175.197 171.99 173.49V132.803C171.99 131.096 172.548 129.684 173.665 128.567C174.781 127.385 176.194 126.794 177.901 126.794C179.609 126.794 181.021 127.385 182.137 128.567C183.254 129.684 183.812 131.096 183.812 132.803V137.039L182.334 136.744C182.925 135.627 183.746 134.445 184.797 133.197C185.848 131.884 187.129 130.669 188.639 129.552C190.15 128.436 191.825 127.549 193.664 126.892C195.502 126.17 197.506 125.809 199.673 125.809Z" fill="white"/>
<path d="M102.098 125.809C103.805 125.809 105.217 126.367 106.334 127.483C107.45 128.6 108.008 130.045 108.008 131.818V173.49C108.008 175.197 107.45 176.642 106.334 177.825C105.217 178.941 103.805 179.499 102.098 179.499C100.39 179.499 98.9779 178.941 97.8614 177.825C96.7449 176.642 96.1867 175.197 96.1867 173.49V168.663L98.354 169.549C98.354 170.403 97.8943 171.454 96.9748 172.702C96.0553 173.884 94.8075 175.066 93.2312 176.248C91.655 177.43 89.7832 178.448 87.6159 179.302C85.5142 180.09 83.2155 180.484 80.7198 180.484C76.1881 180.484 72.0833 179.335 68.4054 177.036C64.7275 174.672 61.8049 171.454 59.6376 167.382C57.5359 163.244 56.4851 158.516 56.4851 153.196C56.4851 147.81 57.5359 143.082 59.6376 139.01C61.8049 134.872 64.6947 131.654 68.3069 129.355C71.9191 126.991 75.9254 125.809 80.3258 125.809C83.1499 125.809 85.7441 126.235 88.1085 127.089C90.4728 127.943 92.5088 129.027 94.2164 130.34C95.9897 131.654 97.336 133 98.2555 134.379C99.2407 135.693 99.7332 136.809 99.7332 137.729L96.1867 139.01V131.818C96.1867 130.11 96.7449 128.698 97.8614 127.582C98.9779 126.4 100.39 125.809 102.098 125.809ZM82.1975 169.648C85.0873 169.648 87.6159 168.925 89.7832 167.48C91.9505 166.036 93.6253 164.065 94.8075 161.57C96.0553 159.074 96.6793 156.283 96.6793 153.196C96.6793 150.043 96.0553 147.219 94.8075 144.723C93.6253 142.228 91.9505 140.257 89.7832 138.813C87.6159 137.368 85.0873 136.645 82.1975 136.645C79.3734 136.645 76.8777 137.368 74.7104 138.813C72.5431 140.257 70.8355 142.228 69.5876 144.723C68.4054 147.219 67.8143 150.043 67.8143 153.196C67.8143 156.283 68.4054 159.074 69.5876 161.57C70.8355 164.065 72.5431 166.036 74.7104 167.48C76.8777 168.925 79.3734 169.648 82.1975 169.648Z" stroke="white" stroke-width="2.88849" mask="url(#path-2-outside-1_88_5)"/>
<path d="M144.255 125.809C147.999 125.809 151.25 126.203 154.008 126.991C156.832 127.779 159 128.895 160.51 130.34C162.086 131.719 162.874 133.394 162.874 135.365C162.874 136.678 162.48 137.926 161.692 139.108C160.904 140.225 159.755 140.783 158.244 140.783C157.193 140.783 156.307 140.652 155.584 140.389C154.928 140.06 154.337 139.666 153.811 139.207C153.286 138.747 152.662 138.32 151.939 137.926C151.283 137.532 150.265 137.236 148.885 137.039C147.572 136.777 146.587 136.645 145.93 136.645C142.58 136.645 139.723 137.368 137.359 138.813C135.06 140.257 133.287 142.228 132.039 144.723C130.791 147.154 130.167 149.978 130.167 153.196C130.167 156.348 130.791 159.172 132.039 161.668C133.353 164.098 135.126 166.036 137.359 167.48C139.658 168.925 142.285 169.648 145.24 169.648C146.882 169.648 148.294 169.549 149.476 169.352C150.659 169.155 151.644 168.86 152.432 168.466C153.351 167.94 154.172 167.382 154.895 166.791C155.617 166.2 156.701 165.904 158.146 165.904C159.853 165.904 161.167 166.462 162.086 167.579C163.006 168.63 163.466 169.943 163.466 171.52C163.466 173.162 162.546 174.672 160.707 176.051C158.868 177.365 156.438 178.448 153.417 179.302C150.462 180.09 147.243 180.484 143.763 180.484C138.574 180.484 134.075 179.302 130.266 176.938C126.457 174.508 123.501 171.224 121.4 167.086C119.364 162.949 118.346 158.319 118.346 153.196C118.346 147.81 119.429 143.082 121.597 139.01C123.83 134.872 126.884 131.654 130.759 129.355C134.699 126.991 139.198 125.809 144.255 125.809Z" stroke="white" stroke-width="2.88849" mask="url(#path-2-outside-1_88_5)"/>
<path d="M199.673 125.809C204.927 125.809 208.802 127.089 211.298 129.651C213.793 132.146 215.435 135.397 216.223 139.404L214.549 138.517L215.337 136.941C216.125 135.43 217.34 133.821 218.982 132.114C220.624 130.34 222.594 128.863 224.893 127.68C227.257 126.433 229.884 125.809 232.774 125.809C237.503 125.809 241.082 126.827 243.512 128.863C246.008 130.899 247.715 133.624 248.635 137.039C249.554 140.389 250.014 144.132 250.014 148.27V173.49C250.014 175.197 249.456 176.642 248.339 177.825C247.223 178.941 245.811 179.499 244.103 179.499C242.396 179.499 240.984 178.941 239.867 177.825C238.751 176.642 238.192 175.197 238.192 173.49V148.27C238.192 146.103 237.93 144.165 237.404 142.458C236.879 140.684 235.926 139.272 234.547 138.221C233.168 137.171 231.198 136.645 228.636 136.645C226.141 136.645 224.006 137.171 222.233 138.221C220.46 139.272 219.113 140.684 218.194 142.458C217.34 144.165 216.913 146.103 216.913 148.27V173.49C216.913 175.197 216.355 176.642 215.238 177.825C214.122 178.941 212.71 179.499 211.002 179.499C209.295 179.499 207.883 178.941 206.766 177.825C205.65 176.642 205.091 175.197 205.091 173.49V148.27C205.091 146.103 204.829 144.165 204.303 142.458C203.778 140.684 202.825 139.272 201.446 138.221C200.067 137.171 198.097 136.645 195.535 136.645C193.04 136.645 190.905 137.171 189.132 138.221C187.359 139.272 186.012 140.684 185.093 142.458C184.239 144.165 183.812 146.103 183.812 148.27V173.49C183.812 175.197 183.254 176.642 182.137 177.825C181.021 178.941 179.609 179.499 177.901 179.499C176.194 179.499 174.781 178.941 173.665 177.825C172.548 176.642 171.99 175.197 171.99 173.49V132.803C171.99 131.096 172.548 129.684 173.665 128.567C174.781 127.385 176.194 126.794 177.901 126.794C179.609 126.794 181.021 127.385 182.137 128.567C183.254 129.684 183.812 131.096 183.812 132.803V137.039L182.334 136.744C182.925 135.627 183.746 134.445 184.797 133.197C185.848 131.884 187.129 130.669 188.639 129.552C190.15 128.436 191.825 127.549 193.664 126.892C195.502 126.17 197.506 125.809 199.673 125.809Z" stroke="white" stroke-width="2.88849" mask="url(#path-2-outside-1_88_5)"/>
</svg>
