<svg width="307" height="307" viewBox="0 0 307 307" fill="none" xmlns="http://www.w3.org/2000/svg">
<rect x="0.159424" y="153.261" width="216.637" height="216.637" rx="36.1062" transform="rotate(-45 0.159424 153.261)" fill="#35E792"/>
<mask id="mask0_88_23" style="mask-type:alpha" maskUnits="userSpaceOnUse" x="58" y="58" width="190" height="190">
<path d="M58.2905 58.2064H247.848V247.764H58.2905V58.2064Z" fill="#D9D9D9"/>
</mask>
<g mask="url(#mask0_88_23)">
<path d="M157.189 182.036C154.82 184.405 150.979 184.405 148.61 182.036L123.679 157.105C121.311 154.736 121.311 150.895 123.679 148.527L148.61 123.596C150.979 121.227 154.82 121.227 157.189 123.596L182.12 148.527C184.489 150.895 184.489 154.736 182.12 157.105L157.189 182.036ZM150.755 161.841C151.939 163.025 153.86 163.025 155.044 161.841L161.925 154.96C163.109 153.776 163.109 151.856 161.925 150.671L155.044 143.791C153.86 142.606 151.939 142.606 150.755 143.791L143.874 150.671C142.69 151.856 142.69 153.776 143.874 154.96L150.755 161.841ZM191.536 218.058C189.167 220.427 185.326 220.427 182.957 218.058L175.518 210.619L165.605 220.533C162.068 224.07 157.835 225.838 152.905 225.838C147.968 225.838 143.731 224.07 140.194 220.533L130.281 210.619L122.842 218.058C120.473 220.427 116.632 220.427 114.263 218.058L111.113 214.909C108.745 212.54 108.745 208.699 111.113 206.33L118.552 198.891L106.824 187.163L99.3851 194.602C97.0163 196.971 93.1756 196.971 90.8068 194.602L87.6569 191.452C85.288 189.083 85.288 185.242 87.6569 182.874L95.096 175.435L85.1828 165.521C81.6457 161.984 79.8771 157.747 79.8771 152.81C79.8771 147.881 81.6457 143.647 85.1828 140.11L95.096 130.197L87.6569 122.758C85.288 120.389 85.288 116.548 87.6569 114.18L90.8068 111.03C93.1756 108.661 97.0163 108.661 99.3851 111.03L106.824 118.469L118.552 106.74L111.113 99.3014C108.745 96.9325 108.745 93.0918 111.113 90.723L114.263 87.5731C116.632 85.2043 120.473 85.2043 122.842 87.5731L130.281 95.0122L140.194 85.099C143.731 81.5619 147.966 79.7915 152.9 79.7878C157.833 79.7915 162.068 81.5619 165.605 85.099L175.518 95.0122L182.957 87.5731C185.326 85.2043 189.167 85.2043 191.536 87.5731L194.686 90.723C197.055 93.0919 197.055 96.9325 194.686 99.3014L187.247 106.74L198.975 118.469L206.414 111.03C208.783 108.661 212.623 108.661 214.992 111.03L218.142 114.18C220.511 116.548 220.511 120.389 218.142 122.758L210.703 130.197L220.616 140.11C224.153 143.647 225.924 147.882 225.928 152.816C225.924 157.749 224.153 161.984 220.616 165.521L210.703 175.435L218.142 182.874C220.511 185.242 220.511 189.083 218.142 191.452L214.992 194.602C212.623 196.971 208.783 196.971 206.414 194.602L198.975 187.163L187.247 198.891L194.686 206.33C197.055 208.699 197.055 212.54 194.686 214.909L191.536 218.058ZM203.621 157.105C205.99 154.736 205.99 150.895 203.621 148.527L157.189 102.094C154.82 99.725 150.979 99.725 148.61 102.094L102.178 148.527C99.8087 150.895 99.8087 154.736 102.178 157.105L148.61 203.538C150.979 205.907 154.82 205.907 157.189 203.538L203.621 157.105Z" fill="#F8F8F8"/>
</g>
</svg>
