<svg width="307" height="307" viewBox="0 0 307 307" fill="none" xmlns="http://www.w3.org/2000/svg">
<rect x="0.159424" y="153.824" width="216.637" height="216.637" rx="36.1062" transform="rotate(-45 0.159424 153.824)" fill="#AF3FFF"/>
<mask id="mask0_88_8" style="mask-type:alpha" maskUnits="userSpaceOnUse" x="53" y="54" width="200" height="200">
<path d="M53.9575 54.437H252.541V253.021H53.9575V54.437Z" fill="#D9D9D9"/>
</mask>
<g mask="url(#mask0_88_8)">
<path d="M158.127 224.819C155.258 227.05 151.241 227.05 148.373 224.819L86.949 177.044C82.8272 173.838 82.8669 167.596 87.0291 164.443L87.5803 164.025C90.4435 161.856 94.4062 161.878 97.2448 164.08L148.382 203.737C151.247 205.959 155.253 205.959 158.118 203.737L209.255 164.08C212.093 161.878 216.056 161.856 218.919 164.025L219.47 164.443C223.633 167.596 223.672 173.838 219.551 177.044L158.127 224.819ZM158.127 183.033C155.258 185.264 151.241 185.264 148.373 183.033L86.8424 135.176C82.7536 131.996 82.7536 125.816 86.8424 122.636L148.373 74.7786C151.241 72.5476 155.258 72.5476 158.127 74.7786L219.657 122.636C223.746 125.816 223.746 131.996 219.657 135.176L158.127 183.033ZM148.388 161.964C151.251 164.18 155.249 164.18 158.111 161.964L192.71 135.188C196.819 132.008 196.819 125.804 192.71 122.624L158.111 95.8476C155.249 93.6322 151.251 93.6322 148.388 95.8476L113.789 122.624C109.68 125.804 109.68 132.008 113.789 135.188L148.388 161.964Z" fill="#F8F8F8"/>
</g>
</svg>
