<svg width="307" height="307" viewBox="0 0 307 307" fill="none" xmlns="http://www.w3.org/2000/svg">
<rect x="0.159424" y="153.303" width="216.637" height="216.637" rx="36.1062" transform="rotate(-45 0.159424 153.303)" fill="#FF406E"/>
<mask id="mask0_88_13" style="mask-type:alpha" maskUnits="userSpaceOnUse" x="62" y="62" width="182" height="182">
<path d="M62.984 62.9424H243.515V243.473H62.984V62.9424Z" fill="#D9D9D9"/>
</mask>
<g mask="url(#mask0_88_13)">
<path d="M168.294 220.907C166.162 220.907 164.377 220.185 162.938 218.74C161.494 217.301 160.771 215.516 160.771 213.385C160.771 211.253 161.494 209.468 162.938 208.029C164.377 206.585 166.162 205.863 168.294 205.863C174.186 205.863 179.419 204.704 183.992 202.387C188.571 200.065 190.86 197.463 190.86 194.579C190.86 192.824 190.045 191.194 188.415 189.69C187.804 189.125 187.104 188.579 186.316 188.049C184.202 186.63 183.595 183.604 185.395 181.803L190.757 176.442C191.924 175.274 193.746 175.031 195.1 175.975C198.026 178.012 200.436 180.327 202.331 182.92C204.713 186.18 205.904 190.066 205.904 194.579C205.904 202.854 201.955 209.31 194.057 213.949C186.159 218.587 177.571 220.907 168.294 220.907ZM99.3701 161.39C98.2083 162.552 96.3956 162.8 95.0459 161.863C92.4959 160.093 90.3964 158.115 88.7472 155.931C86.6159 153.112 85.5503 149.697 85.5503 145.686C85.5503 140.42 87.4935 136 91.3799 132.424C95.2664 128.854 102.224 124.874 112.254 120.487C120.152 116.851 125.197 114.311 127.388 112.867C129.585 111.427 130.683 109.83 130.683 108.075C130.683 106.069 129.459 104.314 127.012 102.81C124.57 101.305 120.779 100.553 115.639 100.553C112.505 100.553 109.872 100.929 107.741 101.681C105.609 102.433 103.666 103.687 101.911 105.442C100.532 106.821 98.8394 107.636 96.8335 107.887C94.8276 108.138 93.0097 107.574 91.3799 106.194C89.7501 104.941 88.8099 103.311 88.5591 101.305C88.3084 99.2992 88.8726 97.4814 90.2516 95.8516C92.6336 92.9681 96.0512 90.5234 100.504 88.5175C104.952 86.5116 109.997 85.5087 115.639 85.5087C124.665 85.5087 131.937 87.5447 137.453 91.6166C142.969 95.6936 145.727 101.18 145.727 108.075C145.727 112.964 143.909 117.352 140.274 121.239C136.638 125.125 129.304 129.45 118.271 134.214C111 137.349 106.236 139.668 103.979 141.172C101.723 142.677 100.595 144.181 100.595 145.686C100.595 146.814 101.314 147.912 102.753 148.98C103.068 149.212 103.407 149.442 103.772 149.67C105.968 151.046 106.642 154.118 104.809 155.951L99.3701 161.39ZM108.117 202.252C108.117 204.246 109.733 205.863 111.727 205.863H117.145C118.107 205.863 119.029 205.479 119.707 204.796L198.96 125.01C200.362 123.599 200.358 121.319 198.952 119.913L193.527 114.488C192.114 113.075 189.821 113.078 188.412 114.497L109.166 194.276C108.494 194.952 108.117 195.867 108.117 196.82V202.252ZM96.683 220.907C94.6889 220.907 93.0724 219.29 93.0724 217.296V190.427C93.0724 189.473 93.45 188.558 94.1227 187.882L185.859 95.6235C188.677 92.7898 193.26 92.7833 196.086 95.609L217.842 117.366C220.657 120.18 220.663 124.741 217.857 127.563L126.1 219.842C125.422 220.524 124.501 220.907 123.54 220.907H96.683Z" fill="#F8F8F8"/>
</g>
</svg>
