<svg width="307" height="307" viewBox="0 0 307 307" fill="none" xmlns="http://www.w3.org/2000/svg">
<rect x="0.159302" y="153.218" width="216.637" height="216.637" rx="36.1062" transform="rotate(-45 0.159302 153.218)" fill="#FF7917"/>
<mask id="mask0_88_50" style="mask-type:alpha" maskUnits="userSpaceOnUse" x="67" y="67" width="172" height="172">
<rect x="67.3165" y="67.1904" width="171.504" height="171.235" fill="#D9D9D9"/>
</mask>
<g mask="url(#mask0_88_50)">
<path d="M113.089 219.161C111.095 219.161 109.478 217.545 109.478 215.551V205.676C109.478 204.717 109.859 203.798 110.538 203.12L114.251 199.413C115.39 198.276 114.585 196.33 112.975 196.33H96.4366C91.9108 196.33 88.0686 194.756 84.9101 191.607C81.7563 188.453 80.1794 184.617 80.1794 180.098V103.399C80.1794 98.8807 81.7563 95.0446 84.9101 91.891C88.0686 88.7422 91.9108 87.1678 96.4366 87.1678H146.957C148.951 87.1678 150.568 88.7843 150.568 90.7784V99.7888C150.568 101.783 148.951 103.399 146.957 103.399H100.047C98.0532 103.399 96.4366 105.016 96.4366 107.01V176.488C96.4366 178.482 98.0531 180.098 100.047 180.098H206.09C208.084 180.098 209.701 178.482 209.701 176.488V163.553C209.701 161.559 211.317 159.943 213.312 159.943H222.347C224.342 159.943 225.958 161.559 225.958 163.553V180.098C225.958 184.617 224.381 188.453 221.227 191.607C218.069 194.756 214.227 196.33 209.701 196.33H193.162C191.553 196.33 190.748 198.276 191.887 199.413L195.6 203.12C196.278 203.798 196.659 204.717 196.659 205.676V215.551C196.659 217.545 195.043 219.161 193.049 219.161H113.089Z" fill="#F8F8F8"/>
</g>
<mask id="mask1_88_50" style="mask-type:alpha" maskUnits="userSpaceOnUse" x="67" y="67" width="172" height="172">
<rect x="67.3167" y="67.4604" width="171.504" height="171.235" fill="#D9D9D9"/>
</mask>
<g mask="url(#mask1_88_50)">
<path d="M113.089 219.431C111.095 219.431 109.478 217.815 109.478 215.821V205.946C109.478 204.987 109.859 204.068 110.538 203.39L114.251 199.683C115.39 198.546 114.585 196.6 112.976 196.6H96.4367C91.9109 196.6 88.0688 195.026 84.9102 191.877C81.7565 188.723 80.1796 184.887 80.1796 180.368V103.669C80.1796 99.1507 81.7565 95.3146 84.9102 92.161C88.0688 89.0122 91.9109 87.4378 96.4367 87.4378H146.957C148.951 87.4378 150.568 89.0543 150.568 91.0484V100.059C150.568 102.053 148.951 103.669 146.957 103.669H100.047C98.0533 103.669 96.4367 105.286 96.4367 107.28V176.758C96.4367 178.752 98.0533 180.368 100.047 180.368H206.09C208.085 180.368 209.701 178.752 209.701 176.758V163.823C209.701 161.829 211.318 160.213 213.312 160.213H222.348C224.342 160.213 225.958 161.829 225.958 163.823V180.368C225.958 184.887 224.381 188.723 221.228 191.877C218.069 195.026 214.227 196.6 209.701 196.6H193.162C191.553 196.6 190.748 198.546 191.887 199.683L195.6 203.39C196.278 204.068 196.66 204.987 196.66 205.946V215.821C196.66 217.815 195.043 219.431 193.049 219.431H113.089Z" fill="#F8F8F8"/>
</g>
<mask id="mask2_88_50" style="mask-type:alpha" maskUnits="userSpaceOnUse" x="150" y="72" width="89" height="90">
<rect x="150.325" y="72.9398" width="88.4962" height="88.3572" fill="#D9D9D9"/>
</mask>
<g mask="url(#mask2_88_50)">
<path d="M184.793 151.212C184.645 152.199 183.855 153.012 182.858 153.012H168.992C166.104 153.012 163.629 151.985 161.569 149.93C159.512 147.873 158.483 145.403 158.483 142.519V128.678C158.483 127.681 159.3 126.897 160.278 126.702C161.844 126.389 163.212 125.648 164.383 124.48C165.981 122.884 166.78 120.921 166.78 118.589C166.78 116.258 165.981 114.294 164.383 112.699C163.212 111.53 161.844 110.789 160.278 110.477C159.3 110.282 158.483 109.497 158.483 108.5V94.6591C158.483 91.7752 159.512 89.3049 161.569 87.2481C163.629 85.1938 166.104 84.1667 168.992 84.1667H179.63C180.472 84.1667 181.189 83.5806 181.456 82.7826C182.231 80.4672 183.546 78.5503 185.401 77.0318C187.613 75.223 190.133 74.3185 192.96 74.3185C195.787 74.3185 198.306 75.223 200.519 77.0318C202.374 78.5503 203.688 80.4672 204.463 82.7826C204.73 83.5806 205.448 84.1667 206.289 84.1667H216.928C219.816 84.1667 222.29 85.1938 224.35 87.2481C226.408 89.3049 227.436 91.7752 227.436 94.6591V105.277C227.436 106.119 228.023 106.837 228.822 107.103C231.141 107.877 233.061 109.19 234.583 111.042C236.394 113.251 237.3 115.767 237.3 118.589C237.3 121.412 236.394 123.927 234.583 126.136C233.061 127.988 231.141 129.301 228.822 130.075C228.023 130.341 227.436 131.059 227.436 131.901V142.519C227.436 145.403 226.408 147.873 224.35 149.93C222.29 151.985 219.816 153.012 216.928 153.012H203.062C202.065 153.012 201.274 152.199 201.129 151.212C200.846 149.281 200.089 147.596 198.86 146.157C197.262 144.284 195.295 143.348 192.96 143.348C190.686 143.348 188.735 144.284 187.108 146.157C185.854 147.596 185.082 149.281 184.793 151.212ZM170.098 139.609C170.098 140.607 170.907 141.415 171.904 141.415H176.52C176.817 141.415 177.082 141.232 177.199 140.959C178.448 138.052 180.475 135.811 183.281 134.236C186.23 132.579 189.457 131.751 192.96 131.751C196.278 131.751 199.413 132.579 202.363 134.236C205.178 135.817 207.294 138.069 208.71 140.992C208.834 141.248 209.09 141.415 209.374 141.415H214.016C215.013 141.415 215.821 140.607 215.821 139.609V122.144C215.821 121.746 216.145 121.422 216.543 121.422H223.841C224.333 121.422 224.763 121.238 225.132 120.87C225.501 120.502 225.685 119.08 225.685 118.589C225.685 118.098 225.501 116.727 225.132 116.359C224.763 115.991 224.333 115.807 223.841 115.807H216.543C216.145 115.807 215.821 115.483 215.821 115.085V97.5689C215.821 96.5718 215.013 95.7636 214.016 95.7636H196.229C195.83 95.7636 195.507 95.4403 195.507 95.0415V87.7562C195.507 87.2653 195.322 86.8358 194.954 86.4677C194.585 86.0995 193.175 85.9091 192.683 85.9091C192.191 85.9091 190.781 86.0995 190.412 86.4677C190.043 86.8358 189.859 87.2653 189.859 87.7562V95.0415C189.859 95.4403 189.536 95.7636 189.137 95.7636H171.904C170.907 95.7636 170.098 96.5718 170.098 97.5689V101.662C170.098 102.236 170.374 102.772 170.821 103.13C173.064 104.928 174.867 107.089 176.23 109.614C177.735 112.407 178.487 115.399 178.487 118.589C178.487 121.78 177.735 124.786 176.23 127.609C174.867 130.163 173.064 132.34 170.821 134.14C170.374 134.499 170.098 135.035 170.098 135.608V139.609Z" fill="#F8F8F8"/>
</g>
</svg>
