<svg width="307" height="307" viewBox="0 0 307 307" fill="none" xmlns="http://www.w3.org/2000/svg">
<rect x="0.159302" y="153.177" width="216.637" height="216.637" rx="36.1062" transform="rotate(-45 0.159302 153.177)" fill="#FE0EC9"/>
<mask id="mask0_88_71" style="mask-type:alpha" maskUnits="userSpaceOnUse" x="79" y="67" width="164" height="164">
<path d="M79.5927 67.9591H242.07V230.437H79.5927V67.9591Z" fill="#D9D9D9"/>
</mask>
<g mask="url(#mask0_88_71)">
<path d="M99.9022 216.897C96.1788 216.897 92.9924 215.573 90.3431 212.923C87.6893 210.269 86.3624 207.081 86.3624 203.357V122.119C86.3624 118.395 87.6893 115.209 90.3431 112.559C92.9924 109.906 96.1788 108.579 99.9022 108.579H118.386C120.197 108.579 121.927 107.823 123.157 106.493L131.822 97.1249C133.052 95.795 134.782 95.0389 136.593 95.0389H167.872C171.461 95.0389 174.371 97.9487 174.371 101.538V102.08C174.371 105.669 171.461 108.579 167.872 108.579H142.543C140.716 108.579 138.974 109.348 137.742 110.697L129.253 120C128.022 121.35 126.279 122.119 124.453 122.119H106.401C102.812 122.119 99.9022 125.028 99.9022 128.618V196.858C99.9022 200.448 102.812 203.357 106.401 203.357H201.722C205.311 203.357 208.221 200.448 208.221 196.858V148.927C208.221 145.338 211.13 142.428 214.72 142.428H215.261C218.851 142.428 221.761 145.338 221.761 148.927V203.357C221.761 207.081 220.436 210.269 217.787 212.923C215.133 215.573 211.944 216.897 208.221 216.897H99.9022ZM154.061 193.203C162.524 193.203 169.718 190.242 175.644 184.32C181.565 178.395 184.526 171.2 184.526 162.738C184.526 154.276 181.565 147.081 175.644 141.156C169.718 135.234 162.524 132.273 154.061 132.273C145.599 132.273 138.405 135.234 132.479 141.156C126.558 147.081 123.597 154.276 123.597 162.738C123.597 171.2 126.558 178.395 132.479 184.32C138.405 190.242 145.599 193.203 154.061 193.203ZM154.061 179.663C149.323 179.663 145.317 178.027 142.045 174.755C138.773 171.482 137.137 167.477 137.137 162.738C137.137 157.999 138.773 153.994 142.045 150.721C145.317 147.449 149.323 145.813 154.061 145.813C158.8 145.813 162.806 147.449 166.078 150.721C169.35 153.994 170.986 157.999 170.986 162.738C170.986 167.477 169.35 171.482 166.078 174.755C162.806 178.027 158.8 179.663 154.061 179.663Z" fill="#F8F8F8"/>
</g>
<path d="M224.562 118.225L214.401 122.79L209.836 132.951C207.538 138.065 200.277 138.065 197.98 132.951L193.414 122.79L183.254 118.225C178.139 115.927 178.139 108.666 183.254 106.368L193.414 101.803L197.98 91.642C200.277 86.5277 207.538 86.5277 209.836 91.642L214.401 101.803L224.562 106.368C229.676 108.666 229.676 115.927 224.562 118.225Z" fill="#F8F8F8"/>
</svg>
