<svg width="307" height="307" viewBox="0 0 307 307" fill="none" xmlns="http://www.w3.org/2000/svg">
<rect x="0.159302" y="153.698" width="216.637" height="216.637" rx="36.1062" transform="rotate(-45 0.159302 153.698)" fill="#11D4B1"/>
<mask id="mask0_88_63" style="mask-type:alpha" maskUnits="userSpaceOnUse" x="72" y="72" width="163" height="163">
<path d="M72.0104 72.3633H234.488V234.841H72.0104V72.3633Z" fill="#D9D9D9"/>
</mask>
<g mask="url(#mask0_88_63)">
<path d="M113.09 142.046L126.292 147.631C127.871 144.472 129.507 141.425 131.2 138.492C132.892 135.558 134.754 132.625 136.785 129.691L127.307 127.829L113.09 142.046ZM137.124 156.094L156.418 175.219C161.157 173.413 166.234 170.649 171.65 166.925C177.066 163.202 182.143 158.971 186.882 154.232C194.781 146.334 200.959 137.562 205.418 127.917C209.873 118.268 211.818 109.381 211.254 101.257C203.13 100.693 194.216 102.638 184.513 107.093C174.809 111.552 166.008 117.731 158.11 125.629C153.371 130.368 149.14 135.445 145.417 140.861C141.693 146.277 138.929 151.355 137.124 156.094ZM170.465 199.421L184.682 185.204L182.82 175.726C179.887 177.757 176.953 179.59 174.02 181.223C171.086 182.862 168.039 184.471 164.88 186.05L170.465 199.421ZM218.22 88.2512C221.342 88.5389 223.803 91 224.092 94.1221C225.188 105.947 223.646 117.492 219.466 128.757C214.668 141.678 206.402 154.006 194.668 165.741L198.053 182.496C198.504 184.753 198.391 186.953 197.714 189.097C197.037 191.241 195.909 193.102 194.329 194.682L171.186 217.826C168.654 220.357 164.366 219.527 162.961 216.234L151.679 189.774L123.429 161.524C122.972 161.067 122.432 160.702 121.838 160.449L96.2552 149.54C92.9679 148.139 92.1335 143.862 94.6529 141.327L117.66 118.182C119.24 116.602 121.131 115.474 123.333 114.797C125.531 114.12 127.759 114.007 130.015 114.459L146.771 117.844C158.505 106.109 170.804 97.8159 183.667 92.9641C194.884 88.733 206.402 87.1621 218.22 88.2512ZM101.412 182.327C105.361 178.378 110.184 176.374 115.88 176.315C121.58 176.261 126.405 178.209 130.354 182.158C134.303 186.107 136.248 190.929 136.189 196.625C136.135 202.325 134.134 207.15 130.184 211.099C127.364 213.92 122.654 216.346 116.056 218.377C110.37 220.125 102.825 221.707 93.4193 223.121C91.0591 223.476 89.0357 221.452 89.3905 219.092C90.8046 209.686 92.386 202.141 94.1347 196.456C96.1656 189.857 98.5915 185.148 101.412 182.327ZM111.059 191.805C109.931 192.933 108.803 194.993 107.674 197.986C106.546 200.973 105.756 203.991 105.305 207.037C108.351 206.586 111.371 205.825 114.363 204.756C117.351 203.681 119.409 202.58 120.537 201.452C121.891 200.098 122.625 198.462 122.738 196.544C122.85 194.626 122.23 192.99 120.876 191.636C119.522 190.282 117.886 189.632 115.968 189.686C114.049 189.744 112.413 190.451 111.059 191.805Z" fill="#F8F8F8"/>
</g>
<rect x="150" y="136.054" width="26.6463" height="26.6463" rx="13.3232" fill="#F8F8F8"/>
<rect x="176.646" y="114.608" width="21.4471" height="21.4471" rx="10.7235" fill="#F8F8F8"/>
</svg>
