<svg width="307" height="307" viewBox="0 0 307 307" fill="none" xmlns="http://www.w3.org/2000/svg">
<rect x="0.159302" y="153.74" width="216.637" height="216.637" rx="36.1062" transform="rotate(-45 0.159302 153.74)" fill="#FFCB1F"/>
<mask id="mask0_88_41" style="mask-type:alpha" maskUnits="userSpaceOnUse" x="62" y="63" width="182" height="181">
<path d="M62.9839 63.3789L243.515 63.3789L243.515 243.91L62.9839 243.91L62.9839 63.3789Z" fill="#D9D9D9"/>
</mask>
<g mask="url(#mask0_88_41)">
<path d="M100.594 228.866C96.4571 228.866 92.9142 227.394 89.9655 224.45C87.0219 221.501 85.55 217.958 85.55 213.821L85.55 108.512C85.55 104.374 87.0219 100.834 89.9655 97.8904C92.9142 94.9417 96.4571 93.4674 100.594 93.4674H104.506C106.5 93.4674 108.116 91.8509 108.116 89.8568V85.6444C108.116 81.6562 111.349 78.4232 115.338 78.4232H115.939C119.928 78.4232 123.161 81.6562 123.161 85.6444V89.8568C123.161 91.8509 124.777 93.4674 126.771 93.4674L179.727 93.4674C181.721 93.4674 183.338 91.8509 183.338 89.8568V85.6444C183.338 81.6562 186.571 78.4232 190.559 78.4232H191.161C195.149 78.4232 198.382 81.6562 198.382 85.6444V89.8568C198.382 91.8509 199.998 93.4674 201.992 93.4674L205.904 93.4674C210.041 93.4674 213.584 94.9417 216.533 97.8904C219.476 100.834 220.948 104.374 220.948 108.512V131.379C220.948 135.367 217.715 138.6 213.727 138.6L107.816 138.6C103.827 138.6 100.594 141.833 100.594 145.821L100.594 206.6C100.594 210.588 103.827 213.821 107.816 213.821H123.462C127.45 213.821 130.683 217.054 130.683 221.042V221.644C130.683 225.632 127.45 228.866 123.462 228.866H100.594ZM100.594 116.335C100.594 120.323 103.827 123.556 107.816 123.556L198.683 123.556C202.671 123.556 205.904 120.323 205.904 116.335V115.733C205.904 111.745 202.671 108.512 198.683 108.512L107.816 108.512C103.827 108.512 100.594 111.745 100.594 115.733V116.335Z" fill="#F8F8F8"/>
</g>
<mask id="mask1_88_41" style="mask-type:alpha" maskUnits="userSpaceOnUse" x="133" y="142" width="103" height="102">
<path d="M133.752 142.09H235.571V243.91H133.752V142.09Z" fill="#D9D9D9"/>
</mask>
<g mask="url(#mask1_88_41)">
<path d="M172.304 238.856C170.636 239.563 168.702 238.924 167.784 237.362L161.707 227.032C161.195 226.162 160.343 225.546 159.356 225.333L147.815 222.844C146.025 222.458 144.808 220.793 144.982 218.971L146.12 207.062C146.214 206.074 145.898 205.092 145.246 204.344L137.416 195.374C136.228 194.014 136.228 191.986 137.416 190.625L145.246 181.655C145.898 180.908 146.214 179.925 146.12 178.937L144.982 167.029C144.808 165.206 146.025 163.542 147.815 163.156L159.356 160.666C160.343 160.454 161.195 159.838 161.707 158.968L167.784 148.637C168.702 147.075 170.636 146.436 172.304 147.143L183.254 151.781C184.154 152.163 185.17 152.163 186.07 151.781L197.02 147.143C198.688 146.436 200.621 147.075 201.54 148.637L207.617 158.968C208.129 159.838 208.981 160.454 209.968 160.666L221.509 163.156C223.299 163.542 224.516 165.206 224.342 167.029L223.204 178.937C223.11 179.925 223.426 180.908 224.078 181.655L231.908 190.625C233.095 191.986 233.095 194.014 231.908 195.374L224.078 204.344C223.426 205.092 223.11 206.074 223.204 207.062L224.342 218.971C224.516 220.793 223.299 222.458 221.509 222.844L209.968 225.333C208.981 225.546 208.129 226.162 207.617 227.032L201.54 237.362C200.621 238.924 198.688 239.563 197.02 238.856L186.07 234.218C185.17 233.837 184.154 233.837 183.254 234.218L172.304 238.856ZM172.522 223.126C173.457 224.696 175.419 225.32 177.09 224.577L183.21 221.857C184.135 221.446 185.19 221.442 186.118 221.847L192.411 224.588C194.098 225.323 196.068 224.672 196.984 223.076L200.32 217.269C200.818 216.402 201.655 215.78 202.629 215.552L209.419 213.966C211.161 213.559 212.342 211.938 212.196 210.155L211.62 203.115C211.541 202.141 211.859 201.176 212.504 200.441L216.965 195.351C218.148 194.001 218.16 191.988 216.994 190.624L212.473 185.339C211.847 184.608 211.54 183.657 211.618 182.698L212.192 175.688C212.34 173.881 211.124 172.245 209.352 171.864L202.639 170.421C201.659 170.21 200.81 169.601 200.296 168.739L196.802 162.873C195.866 161.303 193.904 160.679 192.234 161.422L186.114 164.142C185.189 164.553 184.133 164.557 183.205 164.153L176.913 161.411C175.226 160.676 173.256 161.327 172.34 162.923L169.023 168.697C168.513 169.584 167.651 170.213 166.651 170.428L159.972 171.864C158.199 172.245 156.984 173.881 157.132 175.688L157.706 182.698C157.784 183.657 157.476 184.608 156.851 185.339L152.33 190.624C151.164 191.988 151.176 194.001 152.359 195.351L156.822 200.443C157.465 201.177 157.784 202.139 157.706 203.112L157.127 210.315C156.982 212.121 158.197 213.754 159.967 214.135L166.684 215.578C167.665 215.789 168.514 216.399 169.027 217.26L172.522 223.126ZM177.654 206.144C179.064 207.554 181.35 207.554 182.76 206.144L202.281 186.624C203.683 185.221 203.692 182.951 202.301 181.538L200.692 179.904C199.283 178.472 196.975 178.466 195.558 179.891L182.76 192.765C181.352 194.182 179.06 194.185 177.647 192.772L173.745 188.871C172.335 187.461 170.049 187.461 168.639 188.871L167.063 190.447C165.653 191.857 165.653 194.143 167.063 195.553L177.654 206.144Z" fill="#F8F8F8"/>
</g>
</svg>
